# xmcd CD database file
#
# Track frame offsets:
#	150
#	30530
#	55257
#	74972
#	94260
#	115960
#	136132
#	167582
#	192907
#	214342
#	240790
#	260587
#	296807
#
# Disc length: 4147 seconds
#
# Revision: 0
# Processed by: cddbd v1.4PL0 Copyright (c) Steve Scherf et al.
# Submitted via: CDex 1.51
#
DISCID=c610310d
DTITLE=paola arnesano - memorie d'italy
DYEAR=1900
DGENRE=Jazz
TTITLE0=l'amore mio non puo'
TTITLE1=mi sento tua
TTITLE2=piccola italy
TTITLE3=i ricordi della sera
TTITLE4=amarti con gli occhi
TTITLE5=tu musica divina
TTITLE6=le tue mani
TTITLE7=nel 2000
TTITLE8=credere nella vita
TTITLE9=quando piange il ciel
TTITLE10=lontano
TTITLE11=nebbia
TTITLE12=balocchi e profumi
EXTD=
EXTT0=
EXTT1=
EXTT2=
EXTT3=
EXTT4=
EXTT5=
EXTT6=
EXTT7=
EXTT8=
EXTT9=
EXTT10=
EXTT11=
EXTT12=
PLAYORDER=
